<svg width="30" height="30" viewBox="0 0 30 30" fill="none" xmlns="http://www.w3.org/2000/svg">
<g clip-path="url(#clip0)">
<path d="M27.6888 18.8458C27.2761 18.8458 26.9417 19.1803 26.9417 19.593V26.2269C26.9402 27.4644 25.9377 28.4672 24.7002 28.4684H3.73577C2.49829 28.4672 1.49576 27.4644 1.4943 26.2269V6.75677C1.49576 5.51959 2.49829 4.51677 3.73577 4.51531H10.3697C10.7824 4.51531 11.1168 4.18084 11.1168 3.76815C11.1168 3.35576 10.7824 3.021 10.3697 3.021H3.73577C1.6735 3.02333 0.00232723 4.69451 -7.62939e-06 6.75677V26.2272C0.00232723 28.2894 1.6735 29.9606 3.73577 29.963H24.7002C26.7625 29.9606 28.4336 28.2894 28.436 26.2272V19.593C28.436 19.1803 28.1015 18.8458 27.6888 18.8458V18.8458Z" fill="black"/>
<path d="M28.1401 1.09851C26.827 -0.214558 24.6982 -0.214558 23.3851 1.09851L10.0554 14.4282C9.96402 14.5196 9.89806 14.6328 9.86362 14.7572L8.11072 21.0855C8.03863 21.345 8.11189 21.6228 8.30218 21.8134C8.49276 22.0037 8.77061 22.0769 9.03008 22.0051L15.3584 20.252C15.4828 20.2175 15.596 20.1516 15.6874 20.0602L29.0168 6.73019C30.3278 5.41625 30.3278 3.28919 29.0168 1.97525L28.1401 1.09851ZM11.6834 14.9139L22.5927 4.00424L26.1111 7.52259L15.2014 18.4322L11.6834 14.9139ZM10.9806 16.3241L13.7914 19.1353L9.90331 20.2126L10.9806 16.3241ZM27.9603 5.67367L27.1679 6.46606L23.6492 2.94743L24.4419 2.15503C25.1713 1.42568 26.3539 1.42568 27.0832 2.15503L27.9603 3.03177C28.6885 3.762 28.6885 4.94373 27.9603 5.67367V5.67367Z" fill="black"/>
</g>
<defs>
<clipPath id="clip0">
<rect width="30" height="30" fill="white"/>
</clipPath>
</defs>
</svg>
