<svg width="15" height="15" viewBox="0 0 15 15" fill="none" xmlns="http://www.w3.org/2000/svg">
<g clip-path="url(#clip0)">
<path d="M3.32432 9.06465L2.80219 11.0138L0.893818 11.0542C0.323496 9.99638 0 8.78609 0 7.49996C0 6.25628 0.302461 5.08347 0.838594 4.05078H0.839004L2.53799 4.36227L3.28225 6.05105C3.12647 6.50519 3.04157 6.99269 3.04157 7.49996C3.04163 8.05051 3.14136 8.578 3.32432 9.06465Z" fill="#FBBB00"/>
<path d="M14.8691 6.09888C14.9552 6.55257 15.0002 7.02111 15.0002 7.49997C15.0002 8.03692 14.9437 8.56069 14.8362 9.06592C14.4711 10.7851 13.5171 12.2864 12.1955 13.3487L12.1951 13.3483L10.0551 13.2391L9.75227 11.3485C10.6292 10.8342 11.3145 10.0294 11.6755 9.06592H7.66504V6.09888H11.734H14.8691Z" fill="#518EF8"/>
<path d="M12.1946 13.3483L12.1951 13.3488C10.9098 14.3818 9.27706 15 7.49974 15C4.64355 15 2.16032 13.4036 0.893555 11.0542L3.32405 9.0647C3.95742 10.7551 5.58806 11.9584 7.49974 11.9584C8.32143 11.9584 9.09123 11.7363 9.75179 11.3485L12.1946 13.3483Z" fill="#28B446"/>
<path d="M12.2875 1.72664L9.85782 3.71578C9.17418 3.28846 8.36605 3.0416 7.50027 3.0416C5.54532 3.0416 3.88419 4.30011 3.28255 6.05109L0.839277 4.05082H0.838867C2.08709 1.64423 4.60164 0 7.50027 0C9.32005 0 10.9886 0.648223 12.2875 1.72664Z" fill="#F14336"/>
</g>
<defs>
<clipPath id="clip0">
<rect width="15" height="15" fill="white"/>
</clipPath>
</defs>
</svg>
